Coordinates
version=1
nRows=19
nColumns=24
inDegrees=yes

Units are S.I. units (second, meters, Newtons, ...)
Angles are in degrees.

endheader
time	pelvis_tilt	pelvis_list	pelvis_rotation	pelvis_tx	pelvis_ty	pelvis_tz	hip_flexion_r	hip_adduction_r	hip_rotation_r	knee_angle_r	ankle_angle_r	subtalar_angle_r	mtp_angle_r	hip_flexion_l	hip_adduction_l	hip_rotation_l	knee_angle_l	ankle_angle_l	subtalar_angle_l	mtp_angle_l	lumbar_extension	lumbar_bending	lumbar_rotation
      0.45800000	     -5.21589591	     -2.34322602	      1.43587122	     -0.69663576	      1.05220625	      0.29269170	     27.75020009	      1.68137787	     -7.41724810	    -12.29381798	      8.94633836	      0.76275836	     10.61143419	     -9.68101622	     -2.75427009	      0.07633478	     -9.44290897	     17.84006927	      6.15495490	      8.88065302	     -8.19214791	      3.61593529	     -4.41917731
      0.46216667	     -5.16740269	     -2.29137890	      1.52455736	     -0.69066581	      1.05106805	      0.29294809	     27.71470778	      1.63683572	     -7.06608076	    -12.15368188	      8.80288153	      0.48147707	     10.59068104	     -9.78337045	     -2.76297948	      0.08911172	    -10.07281792	     18.00761797	      6.38612882	      8.94310372	     -8.22061056	      3.61458182	     -4.44616072
      0.46633333	     -5.11109100	     -2.24741135	      1.60916302	     -0.68465784	      1.04996162	      0.29321083	     27.68186049	      1.59979629	     -6.73864183	    -12.13448039	      8.65496744	      0.22234300	     10.56992708	     -9.85390643	     -2.78730163	      0.04699273	    -10.79418068	     18.19644224	      6.70658367	      9.05234405	     -8.24472577	      3.62504438	     -4.45433005
      0.47050000	     -5.01213623	     -2.22051054	      1.69230191	     -0.67862213	      1.04896151	      0.29345916	     27.61306384	      1.58028296	     -6.44365716	    -12.23133905	      8.49282660	     -0.03897706	     10.55052236	     -9.94443623	     -2.83438141	     -0.02362073	    -11.56927890	     18.35750425	      7.04230404	      9.21254652	     -8.32323777	      3.66069792	     -4.45949375
      0.47466667	     -4.93460495	     -2.19325951	      1.78092825	     -0.67254775	      1.04795873	      0.29370740	     27.57829418	      1.55704700	     -6.17322965	    -12.44593690	      8.32142091	     -0.31912808	     10.53212016	     -9.97335583	     -2.88657892	     -0.08836618	    -12.42534449	     18.49755505	      7.39563076	      9.42164133	     -8.36255381	      3.69974327	     -4.46270893
      0.47883333	     -4.80617034	     -2.18145007	      1.86904560	     -0.66645704	      1.04707624	      0.29395637	     27.49429410	      1.55276993	     -5.92987456	    -12.75653887	      8.13093562	     -0.60899109	     10.51518489	    -10.02939075	     -2.96244373	     -0.18042480	    -13.33716396	     18.61003049	      7.78577855	      9.68272428	     -8.46552794	      3.76483844	     -4.46081145
      0.48300000	     -4.71632675	     -2.17149273	      1.96118247	     -0.66031361	      1.04614414	      0.29418430	     27.48663074	      1.53505740	     -5.80282226	    -13.23051188	      8.00226615	     -0.74878716	     10.45571122	     -9.99764134	     -3.04993904	     -0.32198761	    -14.34253549	     18.68516228	      8.26741434	     11.47240568	     -8.50452272	      3.82914305	     -4.35335626
      0.48716667	     -4.53319250	     -2.17190186	      2.04355966	     -0.65419169	      1.04544895	      0.29447155	     27.34194388	      1.55950698	     -5.53349018	    -13.68414720	      7.71298576	     -1.18606584	     10.44252345	    -10.06577289	     -3.14221315	     -0.36210487	    -15.34456882	     18.67843381	      8.51610998	     11.64915343	     -8.67474635	      3.92813701	     -4.45765617
      0.49133333	     -4.39302761	     -2.18039732	      2.12836901	     -0.64801042	      1.04467867	      0.29474832	     27.27295041	      1.57830645	     -5.37457089	    -14.27588339	      7.49316614	     -1.47006903	     10.43131905	    -10.02513558	     -3.26356880	     -0.53608031	    -16.47953725	     18.69732410	      9.00994142	     11.91702361	     -8.76732809	      4.02264121	     -4.41904569
      0.49550000	     -4.23585797	     -2.19036543	      2.21121698	     -0.64182413	      1.04396815	      0.29504735	     27.19252557	      1.60267772	     -5.23074511	    -14.93992814	      7.26094823	     -1.77013399	     10.41614986	     -9.97240550	     -3.39175384	     -0.69787829	    -17.67043150	     18.65515901	      9.48367417	     12.27334454	     -8.88551613	      4.12926374	     -4.40342711
      0.49966667	     -4.03755930	     -2.21185152	      2.29902976	     -0.63563824	      1.04337363	      0.29536048	     27.06460246	      1.64034105	     -5.11434775	    -15.64475790	      7.03390831	     -2.05462214	     10.39787812	     -9.92423570	     -3.54402886	     -0.86918333	    -18.93290288	     18.55981456	      9.95410729	     12.66661088	     -9.04958975	      4.23863111	     -4.37954326
      0.50383333	     -3.87172581	     -2.23541271	      2.36856125	     -0.62941126	      1.04273655	      0.29571152	     26.98838028	      1.68541616	     -5.01357648	    -16.43142249	      6.80260246	     -2.34283273	     10.37061657	     -9.81028277	     -3.70480043	     -1.08289797	    -20.25538301	     18.40468951	     10.46385448	     13.20053953	     -9.16677830	      4.37559075	     -4.34150292
      0.50800000	     -3.67331767	     -2.24366175	      2.45405263	     -0.62320796	      1.04221864	      0.29605359	     26.87374168	      1.71005433	     -4.94370562	    -17.24704666	      6.59555928	     -2.59234411	     10.11417468	     -9.70541260	     -3.84757916	     -1.19955534	    -21.59835372	     18.04490914	     10.74866045	     18.01834887	     -9.32643101	      4.47002267	     -4.29864125
      0.51216667	     -3.48520903	     -2.26249549	      2.54602168	     -0.61700784	      1.04170842	      0.29641233	     26.76996712	      1.74404465	     -4.89295817	    -18.09270330	      6.41880586	     -2.82704040	     10.10181175	     -9.53624944	     -4.01630479	     -1.34530230	    -23.04677791	     17.76396156	     11.19080308	     18.09820184	     -9.47874012	      4.58702063	     -4.27637482
      0.51633333	     -3.27184128	     -2.31105503	      2.60885520	     -0.61076981	      1.04125471	      0.29683875	     26.63262684	      1.82566845	     -4.83694851	    -18.94420118	      6.24008042	     -3.08288714	     10.07587953	     -9.36091987	     -4.23559533	     -1.60525211	    -24.56369874	     17.41199869	     11.66547409	     18.28009107	     -9.63663401	      4.74722139	     -4.23274076
      0.52050000	     -3.07180663	     -2.34685493	      2.69001106	     -0.60455441	      1.04083225	      0.29726699	     26.50175929	      1.88863392	     -4.79700744	    -19.80006054	      6.09511595	     -3.32024986	     10.04190094	     -9.13038246	     -4.44649943	     -1.80196219	    -26.13628286	     16.97772034	     12.09042288	     18.51760453	     -9.78378030	      4.86841394	     -4.18925507
      0.52466667	     -2.85944369	     -2.36974060	      2.74159631	     -0.59837929	      1.04045075	      0.29778109	     26.36011805	      1.96245177	     -4.69223550	    -20.67192058	      6.00506482	     -3.64110823	      9.53799842	     -8.89438974	     -4.64355519	     -1.99575619	    -27.72373480	     16.38335163	     12.39725217	     22.13784786	     -9.96672387	      4.98983230	     -4.11794424
      0.52883333	     -2.66794398	     -2.41898920	      2.83268280	     -0.59216661	      1.04008473	      0.29818034	     26.22758707	      2.02548036	     -4.74090351	    -21.53407077	      5.93444389	     -3.71766424	      9.52425942	     -8.58438727	     -4.87861358	     -2.15477339	    -29.39564680	     15.79024551	     12.72849025	     22.21793404	    -10.09188250	      5.15164406	     -4.08560268
      0.53300000	     -2.46883565	     -2.46690170	      2.90196680	     -0.58599164	      1.03975777	      0.29867232	     26.07346299	      2.11263084	     -4.71856468	    -22.37195001	      5.90895828	     -3.90455825	      9.49633604	     -8.25578113	     -5.11968055	     -2.33043947	    -31.10728440	     15.14151277	     13.03864107	     22.36145059	    -10.23905693	      5.30118840	     -4.03660607
